<?xml version="1.0" encoding="utf-8"?>
<!-- Generator: Adobe Illustrator 25.0.0, SVG Export Plug-In . SVG Version: 6.00 Build 0)  -->
<svg version="1.1" id="Layer_1" xmlns="http://www.w3.org/2000/svg" xmlns:xlink="http://www.w3.org/1999/xlink" x="0px" y="0px"
	 viewBox="0 0 1142.5 453.6" style="enable-background:new 0 0 1142.5 453.6;" xml:space="preserve">
<style type="text/css">
	.st0{display:none;fill:#9794D3;stroke:#000000;stroke-miterlimit:10;}
	.st1{opacity:0.3;fill:#83D6FF;enable-background:new    ;}
	.st2{fill:none;}
	.st3{fill:none;stroke:#FFFFFF;stroke-miterlimit:10;}
	.st4{fill:#FFFFFF;}
	.st5{fill:none;stroke:#FFFFFF;stroke-width:0.8;stroke-linejoin:round;}
	.st6{fill:none;stroke:#FFFFFF;stroke-width:0.6;stroke-linejoin:round;}
	.st7{fill:none;stroke:#000000;stroke-width:0.8;stroke-linejoin:round;}
	.st8{clip-path:url(#SVGID_2_);}
	.st9{fill:none;stroke:#FFFCC7;stroke-width:1.5;stroke-linecap:square;stroke-linejoin:round;}
	.st10{fill:#F9F7F7;}
	.st11{font-family:'OpenSans-Bold';}
	.st12{font-size:16px;}
	.st13{fill:none;stroke:#F7F7F7;stroke-width:3;stroke-miterlimit:10;}
	.st14{fill:none;stroke:#F7F7F7;stroke-width:3;stroke-miterlimit:10;stroke-dasharray:11.7052,11.7052;}
	.st15{fill:#F7F7F7;}
	.st16{fill:#FCFCFC;}
</style>
<rect x="-150.2" y="-120.8" class="st0" width="1393.1" height="596.3"/>
<rect x="429.7" y="-0.9" class="st1" width="55.9" height="438.9"/>
<line class="st2" x1="96" y1="438.9" x2="96" y2="442.4"/>
<line class="st3" x1="96" y1="438.9" x2="96" y2="442.4"/>
<polygon class="st4" points="84.6,452.6 86.2,452.6 86.2,447.1 84.4,447.4 84.4,446.5 86.2,446.2 87.1,446.2 87.1,452.6 88.8,452.6 
	88.8,453.5 84.6,453.5 "/>
<path class="st4" d="M92.7,450.2c0.4,0,0.8-0.1,1.1-0.5c0.5-0.7,0.5-1.7,0-2.5c-0.5-0.6-1.4-0.6-2-0.1c0,0-0.1,0.1-0.1,0.1
	c-0.5,0.7-0.5,1.7,0,2.5C92,450.1,92.3,450.3,92.7,450.2z M90.7,453.3v-0.9c0.2,0.1,0.5,0.2,0.8,0.3c0.2,0.1,0.5,0.1,0.8,0.1
	c0.6,0,1.1-0.2,1.5-0.7c0.4-0.6,0.6-1.3,0.6-2c-0.2,0.3-0.4,0.5-0.7,0.7c-0.3,0.2-0.7,0.2-1,0.2c-0.6,0-1.3-0.2-1.7-0.7
	c-0.9-1-0.9-2.6,0-3.6c0.5-0.5,1.1-0.7,1.8-0.7c0.8,0,1.5,0.4,1.9,1c0.5,0.8,0.8,1.8,0.8,2.8c0.1,1-0.2,2-0.8,2.8
	c-0.5,0.7-1.3,1-2.2,1c-0.3,0-0.5,0-0.8-0.1C91.3,453.5,91,453.4,90.7,453.3L90.7,453.3z"/>
<polygon class="st4" points="97.3,452.6 98.9,452.6 98.9,447.1 97.1,447.4 97.1,446.5 98.9,446.2 99.9,446.2 99.9,452.6 
	101.5,452.6 101.5,453.5 97.3,453.5 "/>
<path class="st4" d="M105.5,450.2c0.4,0,0.8-0.1,1.1-0.5c0.5-0.7,0.5-1.7,0-2.5c-0.5-0.6-1.4-0.6-2-0.1c0,0-0.1,0.1-0.1,0.1
	c-0.5,0.7-0.5,1.7,0,2.5C104.7,450.1,105.1,450.3,105.5,450.2z M103.5,453.3v-0.9c0.2,0.1,0.5,0.2,0.8,0.3c0.2,0.1,0.5,0.1,0.8,0.1
	c0.6,0,1.1-0.2,1.5-0.7c0.4-0.6,0.6-1.3,0.6-2c-0.2,0.3-0.4,0.5-0.7,0.7c-0.3,0.2-0.7,0.2-1,0.2c-0.6,0-1.3-0.2-1.7-0.7
	c-0.9-1-0.9-2.6,0-3.6c0.5-0.5,1.1-0.7,1.8-0.7c0.8,0,1.5,0.4,1.9,1c0.5,0.9,0.7,1.8,0.7,2.8c0.1,1-0.2,2-0.8,2.8
	c-0.5,0.7-1.3,1-2.2,1c-0.3,0-0.5,0-0.8-0.1C103.9,453.5,103.7,453.4,103.5,453.3L103.5,453.3z"/>
<line class="st2" x1="281.4" y1="438.9" x2="281.4" y2="442.4"/>
<line class="st3" x1="281.4" y1="438.9" x2="281.4" y2="442.4"/>
<polygon class="st4" points="269.9,452.6 271.5,452.6 271.5,447.1 269.8,447.4 269.8,446.5 271.5,446.2 272.5,446.2 272.5,452.6 
	274.1,452.6 274.1,453.5 269.9,453.5 "/>
<path class="st4" d="M278.1,450.2c0.4,0,0.8-0.1,1-0.5c0.5-0.7,0.5-1.7,0-2.5c-0.5-0.6-1.4-0.6-2-0.1c0,0-0.1,0.1-0.1,0.1
	c-0.5,0.7-0.5,1.7,0,2.5C277.3,450.1,277.7,450.3,278.1,450.2z M276.1,453.3v-0.9c0.2,0.1,0.5,0.2,0.8,0.3c0.2,0.1,0.5,0.1,0.8,0.1
	c0.6,0,1.1-0.2,1.5-0.7c0.4-0.6,0.6-1.3,0.6-2c-0.2,0.3-0.4,0.5-0.7,0.7c-0.3,0.2-0.7,0.2-1,0.2c-0.6,0-1.3-0.2-1.7-0.7
	c-0.9-1-0.9-2.6,0-3.6c0.5-0.5,1.1-0.7,1.8-0.7c0.8,0,1.5,0.4,1.9,1c0.5,0.9,0.7,1.8,0.7,2.8c0.1,1-0.2,2-0.8,2.8
	c-0.5,0.7-1.3,1-2.2,1c-0.3,0-0.5,0-0.8-0.1C276.6,453.5,276.4,453.4,276.1,453.3L276.1,453.3z"/>
<path class="st4" d="M286.7,446.3v0.9c-0.2-0.1-0.5-0.2-0.8-0.3c-0.2-0.1-0.5-0.1-0.8-0.1c-0.6,0-1.1,0.2-1.5,0.7
	c-0.4,0.6-0.6,1.3-0.6,2c0.2-0.3,0.4-0.5,0.7-0.7c0.3-0.2,0.7-0.2,1-0.2c0.6,0,1.3,0.2,1.7,0.7c0.4,0.5,0.7,1.1,0.6,1.8
	c0,0.7-0.2,1.3-0.7,1.8c-0.5,0.5-1.1,0.7-1.8,0.7c-0.8,0-1.5-0.3-1.9-1c-0.5-0.8-0.7-1.8-0.7-2.8c-0.1-1,0.2-2,0.8-2.8
	c0.5-0.7,1.3-1,2.2-1c0.3,0,0.5,0,0.8,0.1C286.2,446.2,286.4,446.3,286.7,446.3z M284.7,449.4c-0.4,0-0.7,0.2-1,0.5
	c-0.5,0.7-0.5,1.7,0,2.5c0.6,0.6,1.5,0.6,2,0c0,0,0,0,0.1,0c0.5-0.7,0.5-1.7,0-2.5C285.5,449.6,285.1,449.4,284.7,449.4L284.7,449.4
	z"/>
<path class="st4" d="M290.8,450.2c0.4,0,0.8-0.1,1-0.5c0.5-0.7,0.5-1.7,0-2.5c-0.5-0.6-1.4-0.6-2-0.1c0,0-0.1,0.1-0.1,0.1
	c-0.5,0.7-0.5,1.7,0,2.5C290.1,450.1,290.4,450.3,290.8,450.2z M288.8,453.3v-0.9c0.2,0.1,0.5,0.2,0.8,0.3c0.2,0.1,0.5,0.1,0.8,0.1
	c0.6,0,1.1-0.2,1.5-0.7c0.4-0.6,0.6-1.3,0.6-2c-0.2,0.3-0.4,0.5-0.7,0.7c-0.3,0.2-0.7,0.2-1,0.2c-0.6,0-1.3-0.2-1.7-0.7
	c-0.9-1-0.9-2.6,0-3.6c0.5-0.5,1.1-0.7,1.8-0.7c0.8,0,1.5,0.4,1.9,1c0.5,0.9,0.7,1.8,0.7,2.8c0.1,1-0.2,2-0.8,2.8
	c-0.5,0.7-1.3,1-2.2,1c-0.3,0-0.5,0-0.8-0.1C289.3,453.5,289.1,453.4,288.8,453.3L288.8,453.3z"/>
<line class="st2" x1="466.8" y1="438.9" x2="466.8" y2="442.4"/>
<line class="st3" x1="466.8" y1="438.9" x2="466.8" y2="442.4"/>
<path class="st4" d="M456,452.6h3.4v0.8h-4.6v-0.8l1.5-1.6c0.6-0.7,1-1.1,1.2-1.3c0.3-0.3,0.5-0.6,0.7-0.9c0.1-0.2,0.2-0.5,0.2-0.7
	c0-0.4-0.1-0.7-0.4-0.9c-0.3-0.3-0.7-0.4-1.1-0.4c-0.3,0-0.7,0.1-1,0.2c-0.4,0.1-0.8,0.3-1.1,0.5v-1c0.4-0.1,0.7-0.3,1.1-0.4
	c0.3-0.1,0.7-0.1,1-0.1c0.6,0,1.3,0.2,1.8,0.6c0.4,0.4,0.7,0.9,0.7,1.5c0,0.3-0.1,0.6-0.2,0.8c-0.2,0.3-0.4,0.7-0.6,1
	c-0.1,0.1-0.3,0.4-0.8,0.8L456,452.6z"/>
<path class="st4" d="M463.6,446.1c0.8,0,1.5,0.4,1.9,1c0.9,1.8,0.9,3.8,0,5.6c-0.4,0.6-1.1,1-1.9,1c-0.8,0-1.5-0.4-1.9-1
	c-0.9-1.8-0.9-3.8,0-5.6C462.1,446.4,462.9,446,463.6,446.1z M463.6,446.8c-0.5,0-1,0.3-1.2,0.8c-0.5,1.5-0.5,3,0,4.5
	c0.3,0.6,1,0.9,1.7,0.6c0.3-0.1,0.5-0.4,0.6-0.6c0.5-1.5,0.5-3,0-4.5C464.6,447.1,464.1,446.9,463.6,446.8L463.6,446.8z"/>
<polygon class="st4" points="468,452.6 469.6,452.6 469.6,447.1 467.9,447.4 467.9,446.5 469.6,446.2 470.6,446.2 470.6,452.6 
	472.2,452.6 472.2,453.5 468,453.5 "/>
<path class="st4" d="M476.2,450.2c0.4,0,0.8-0.1,1-0.5c0.5-0.7,0.5-1.7,0-2.5c-0.5-0.6-1.4-0.6-2-0.1c0,0-0.1,0.1-0.1,0.1
	c-0.5,0.7-0.5,1.7,0,2.5C475.4,450.1,475.8,450.3,476.2,450.2z M474.2,453.3v-0.9c0.2,0.1,0.5,0.2,0.8,0.3c0.2,0.1,0.5,0.1,0.8,0.1
	c0.6,0,1.1-0.2,1.5-0.7c0.4-0.6,0.6-1.3,0.6-2c-0.2,0.3-0.4,0.5-0.7,0.7c-0.3,0.2-0.7,0.2-1,0.2c-0.6,0-1.3-0.2-1.7-0.7
	c-0.9-1-0.9-2.6,0-3.6c0.5-0.5,1.1-0.7,1.8-0.7c0.8,0,1.5,0.4,1.9,1c0.5,0.9,0.7,1.8,0.7,2.8c0.1,1-0.2,2-0.8,2.8
	c-0.5,0.7-1.3,1-2.2,1c-0.3,0-0.5,0-0.8-0.1C474.7,453.5,474.5,453.4,474.2,453.3L474.2,453.3z"/>
<line class="st2" x1="652.2" y1="438.9" x2="652.2" y2="442.4"/>
<line class="st3" x1="652.2" y1="438.9" x2="652.2" y2="442.4"/>
<path class="st4" d="M641.4,452.6h3.4v0.8h-4.6v-0.8l1.5-1.6c0.6-0.7,1-1.1,1.2-1.3c0.3-0.3,0.5-0.6,0.7-0.9
	c0.1-0.2,0.2-0.5,0.2-0.7c0-0.4-0.1-0.7-0.4-0.9c-0.3-0.3-0.7-0.4-1.1-0.4c-0.3,0-0.7,0.1-1,0.2c-0.4,0.1-0.8,0.3-1.1,0.5v-1
	c0.4-0.1,0.7-0.3,1.1-0.4c0.3-0.1,0.7-0.1,1-0.1c0.6,0,1.3,0.2,1.8,0.6c0.4,0.4,0.7,0.9,0.7,1.5c0,0.3-0.1,0.6-0.2,0.8
	c-0.2,0.3-0.4,0.7-0.6,1c-0.1,0.1-0.3,0.4-0.8,0.8L641.4,452.6z"/>
<path class="st4" d="M649,446.1c0.8,0,1.5,0.4,1.9,1c0.9,1.8,0.9,3.8,0,5.6c-0.4,0.6-1.1,1-1.9,1c-0.8,0-1.5-0.4-1.9-1
	c-0.9-1.8-0.9-3.8,0-5.6C647.5,446.4,648.2,446,649,446.1z M649,446.8c-0.5,0-1,0.3-1.2,0.8c-0.5,1.5-0.5,3,0,4.5
	c0.3,0.6,1,0.9,1.7,0.6c0.3-0.1,0.5-0.4,0.6-0.6c0.5-1.5,0.5-3,0-4.5C649.9,447.1,649.5,446.9,649,446.8L649,446.8z"/>
<path class="st4" d="M657.4,446.3v0.9c-0.2-0.1-0.5-0.2-0.8-0.3c-0.2-0.1-0.5-0.1-0.8-0.1c-0.6,0-1.1,0.2-1.5,0.7
	c-0.4,0.6-0.6,1.3-0.6,2c0.2-0.3,0.4-0.5,0.7-0.7c0.3-0.2,0.7-0.2,1-0.2c0.6,0,1.3,0.2,1.7,0.7c0.4,0.5,0.7,1.1,0.6,1.8
	c0,0.7-0.2,1.3-0.7,1.8c-0.5,0.5-1.1,0.7-1.8,0.7c-0.8,0-1.5-0.3-1.9-1c-0.5-0.8-0.7-1.8-0.7-2.8c-0.1-1,0.2-2,0.8-2.8
	c0.5-0.7,1.3-1,2.2-1c0.3,0,0.5,0,0.8,0.1C656.9,446.2,657.2,446.3,657.4,446.3z M655.4,449.4c-0.4,0-0.7,0.2-1,0.5
	c-0.5,0.7-0.5,1.7,0,2.5c0.6,0.6,1.5,0.6,2,0c0,0,0,0,0,0c0.5-0.7,0.5-1.7,0-2.5C656.3,449.6,655.9,449.4,655.4,449.4L655.4,449.4z"
	/>
<path class="st4" d="M661.6,450.2c0.4,0,0.8-0.1,1-0.5c0.5-0.7,0.5-1.7,0-2.5c-0.5-0.6-1.4-0.6-2-0.1c0,0-0.1,0.1-0.1,0.1
	c-0.5,0.7-0.5,1.7,0,2.5C660.8,450.1,661.2,450.3,661.6,450.2z M659.6,453.3v-0.9c0.2,0.1,0.5,0.2,0.8,0.3c0.2,0.1,0.5,0.1,0.8,0.1
	c0.6,0,1.1-0.2,1.5-0.7c0.4-0.6,0.6-1.3,0.6-2c-0.2,0.3-0.4,0.5-0.7,0.7c-0.3,0.2-0.7,0.2-1,0.2c-0.6,0-1.3-0.2-1.7-0.7
	c-0.9-1-0.9-2.6,0-3.6c0.5-0.5,1.1-0.7,1.8-0.7c0.8,0,1.5,0.4,1.9,1c0.5,0.9,0.7,1.8,0.7,2.8c0.1,1-0.2,2-0.8,2.8
	c-0.5,0.7-1.3,1-2.2,1c-0.3,0-0.5,0-0.8-0.1C660.1,453.5,659.9,453.4,659.6,453.3L659.6,453.3z"/>
<line class="st2" x1="837.6" y1="438.9" x2="837.6" y2="442.4"/>
<line class="st5" x1="837.6" y1="438.9" x2="837.6" y2="442.4"/>
<path class="st4" d="M826.8,452.6h3.4v0.8h-4.6v-0.8l1.5-1.6c0.6-0.7,1-1.1,1.2-1.3c0.3-0.3,0.5-0.6,0.7-0.9
	c0.1-0.2,0.2-0.5,0.2-0.7c0-0.4-0.1-0.7-0.4-0.9c-0.3-0.3-0.7-0.4-1.1-0.4c-0.3,0-0.7,0.1-1,0.2c-0.4,0.1-0.8,0.3-1.1,0.5v-1
	c0.4-0.1,0.7-0.3,1.1-0.4c0.3-0.1,0.7-0.1,1-0.1c0.6,0,1.3,0.2,1.8,0.6c0.4,0.4,0.7,0.9,0.7,1.5c0,0.3-0.1,0.6-0.2,0.8
	c-0.2,0.3-0.4,0.7-0.6,1c-0.1,0.1-0.3,0.4-0.8,0.8L826.8,452.6z"/>
<polygon class="st4" points="832.4,452.6 834,452.6 834,447.1 832.3,447.4 832.3,446.5 834,446.2 835,446.2 835,452.6 836.6,452.6 
	836.6,453.5 832.4,453.5 "/>
<polygon class="st4" points="838.8,452.6 840.4,452.6 840.4,447.1 838.7,447.4 838.7,446.5 840.4,446.2 841.4,446.2 841.4,452.6 
	843,452.6 843,453.5 838.8,453.5 "/>
<path class="st4" d="M847,450.2c0.4,0,0.8-0.1,1-0.5c0.5-0.7,0.5-1.7,0-2.5c-0.5-0.6-1.4-0.6-2-0.1c0,0-0.1,0.1-0.1,0.1
	c-0.5,0.7-0.5,1.7,0,2.5C846.2,450.1,846.6,450.3,847,450.2z M845,453.3v-0.9c0.2,0.1,0.5,0.2,0.8,0.3c0.2,0.1,0.5,0.1,0.8,0.1
	c0.6,0,1.1-0.2,1.5-0.7c0.4-0.6,0.6-1.3,0.6-2c-0.2,0.3-0.4,0.5-0.7,0.7c-0.3,0.2-0.7,0.2-1,0.2c-0.6,0-1.3-0.2-1.7-0.7
	c-0.9-1-0.9-2.6,0-3.6c0.5-0.5,1.1-0.7,1.8-0.7c0.8,0,1.5,0.4,1.9,1c0.5,0.9,0.7,1.8,0.7,2.8c0.1,1-0.2,2-0.8,2.8
	c-0.5,0.7-1.3,1-2.2,1c-0.3,0-0.5,0-0.8-0.1C845.5,453.5,845.2,453.4,845,453.3L845,453.3z"/>
<line class="st2" x1="1022.9" y1="438.9" x2="1022.9" y2="442.4"/>
<line class="st5" x1="1022.9" y1="438.9" x2="1022.9" y2="442.4"/>
<path class="st4" d="M1012.1,452.6h3.4v0.8h-4.6v-0.8l1.5-1.6c0.6-0.7,1-1.1,1.2-1.3c0.3-0.3,0.5-0.6,0.7-0.9
	c0.1-0.2,0.2-0.5,0.2-0.7c0-0.4-0.1-0.7-0.4-0.9c-0.3-0.3-0.7-0.4-1.1-0.4c-0.3,0-0.7,0.1-1,0.2c-0.4,0.1-0.8,0.3-1.1,0.5v-1
	c0.4-0.1,0.7-0.3,1.1-0.4c0.3-0.1,0.7-0.1,1-0.1c0.6,0,1.3,0.2,1.8,0.6c0.4,0.4,0.7,0.9,0.7,1.5c0,0.3-0.1,0.6-0.2,0.8
	c-0.2,0.3-0.4,0.7-0.6,1c-0.1,0.1-0.3,0.4-0.8,0.8L1012.1,452.6z"/>
<polygon class="st4" points="1017.8,452.6 1019.4,452.6 1019.4,447.1 1017.7,447.4 1017.7,446.5 1019.4,446.2 1020.4,446.2 
	1020.4,452.6 1022,452.6 1022,453.5 1017.8,453.5 "/>
<path class="st4" d="M1028.2,446.3v0.9c-0.2-0.1-0.5-0.2-0.8-0.3c-0.2-0.1-0.5-0.1-0.8-0.1c-0.6,0-1.1,0.2-1.5,0.7
	c-0.4,0.6-0.6,1.3-0.6,2c0.2-0.3,0.4-0.5,0.7-0.7c0.3-0.2,0.7-0.2,1-0.2c0.6,0,1.3,0.2,1.7,0.7c0.4,0.5,0.7,1.1,0.6,1.8
	c0,0.7-0.2,1.3-0.7,1.8c-0.5,0.5-1.1,0.7-1.8,0.7c-0.8,0-1.5-0.3-1.9-1c-0.5-0.8-0.7-1.8-0.7-2.8c-0.1-1,0.2-2,0.8-2.8
	c0.5-0.7,1.3-1,2.2-1c0.3,0,0.5,0,0.8,0.1C1027.7,446.2,1028,446.3,1028.2,446.3z M1026.2,449.4c-0.4,0-0.7,0.2-1,0.5
	c-0.5,0.7-0.5,1.7,0,2.5c0.6,0.6,1.5,0.6,2.1,0c0,0,0,0,0,0c0.5-0.7,0.5-1.7,0-2.5C1027,449.6,1026.7,449.4,1026.2,449.4
	L1026.2,449.4z"/>
<path class="st4" d="M1032.4,450.2c0.4,0,0.7-0.2,1-0.5c0.5-0.7,0.5-1.7,0-2.5c-0.5-0.6-1.4-0.6-2-0.1c0,0-0.1,0.1-0.1,0.1
	c-0.5,0.7-0.5,1.7,0,2.5C1031.5,450.1,1032,450.3,1032.4,450.2z M1030.4,453.3v-0.9c0.2,0.1,0.5,0.2,0.8,0.3
	c0.2,0.1,0.5,0.1,0.8,0.1c0.6,0,1.1-0.2,1.5-0.7c0.4-0.6,0.6-1.3,0.6-2c-0.2,0.3-0.4,0.5-0.7,0.7c-0.3,0.2-0.7,0.2-1,0.2
	c-0.6,0-1.3-0.2-1.7-0.7c-0.9-1-0.9-2.6,0-3.6c0.5-0.5,1.1-0.7,1.8-0.7c0.8,0,1.5,0.4,1.9,1c0.5,0.9,0.7,1.8,0.7,2.8
	c0.1,1-0.2,2-0.8,2.8c-0.5,0.7-1.3,1-2.2,1c-0.3,0-0.5,0-0.8-0.1C1030.9,453.5,1030.6,453.4,1030.4,453.3L1030.4,453.3z"/>
<line class="st2" x1="59" y1="438.9" x2="59" y2="440.9"/>
<line class="st2" x1="133.1" y1="438.9" x2="133.1" y2="440.9"/>
<line class="st2" x1="170.2" y1="438.9" x2="170.2" y2="440.9"/>
<line class="st2" x1="207.3" y1="438.9" x2="207.3" y2="440.9"/>
<line class="st2" x1="244.3" y1="438.9" x2="244.3" y2="440.9"/>
<line class="st2" x1="318.5" y1="438.9" x2="318.5" y2="440.9"/>
<line class="st6" x1="318.5" y1="438.9" x2="318.5" y2="440.9"/>
<line class="st2" x1="355.6" y1="438.9" x2="355.6" y2="440.9"/>
<line class="st6" x1="355.6" y1="438.9" x2="355.6" y2="440.9"/>
<line class="st2" x1="392.6" y1="438.9" x2="392.6" y2="440.9"/>
<line class="st6" x1="392.6" y1="438.9" x2="392.6" y2="440.9"/>
<line class="st2" x1="429.7" y1="438.9" x2="429.7" y2="440.9"/>
<line class="st6" x1="429.7" y1="438.9" x2="429.7" y2="440.9"/>
<line class="st2" x1="503.9" y1="438.9" x2="503.9" y2="440.9"/>
<line class="st6" x1="503.9" y1="438.9" x2="503.9" y2="440.9"/>
<line class="st2" x1="541" y1="438.9" x2="541" y2="440.9"/>
<line class="st2" x1="578" y1="438.9" x2="578" y2="440.9"/>
<line class="st2" x1="615.1" y1="438.9" x2="615.1" y2="440.9"/>
<line class="st2" x1="689.3" y1="438.9" x2="689.3" y2="440.9"/>
<line class="st2" x1="726.3" y1="438.9" x2="726.3" y2="440.9"/>
<line class="st2" x1="763.4" y1="438.9" x2="763.4" y2="440.9"/>
<line class="st2" x1="800.5" y1="438.9" x2="800.5" y2="440.9"/>
<line class="st2" x1="874.6" y1="438.9" x2="874.6" y2="440.9"/>
<line class="st2" x1="911.7" y1="438.9" x2="911.7" y2="440.9"/>
<line class="st2" x1="948.8" y1="438.9" x2="948.8" y2="440.9"/>
<line class="st2" x1="985.9" y1="438.9" x2="985.9" y2="440.9"/>
<line class="st2" x1="1060" y1="438.9" x2="1060" y2="440.9"/>
<line class="st2" x1="1097.1" y1="438.9" x2="1097.1" y2="440.9"/>
<line class="st2" x1="1134.2" y1="438.9" x2="1134.2" y2="440.9"/>
<line class="st2" x1="25.6" y1="421" x2="22.1" y2="421"/>
<path class="st7" d="M25.6,421"/>
<g>
	<defs>
		<polyline id="SVGID_1_" points="25.6,4 1141.6,4 1141.6,438.9 25.6,438.9 		"/>
	</defs>
	<clipPath id="SVGID_2_">
		<use xlink:href="#SVGID_1_"  style="overflow:visible;"/>
	</clipPath>
	<g class="st8">
		<polyline class="st9" points="25.6,419.1 27.4,402.6 29.3,408.2 31.1,404.5 33,406.8 34.9,405.9 36.7,408.2 38.6,407.3 
			40.4,405.4 42.3,406.4 44.1,408.2 46,400.7 47.8,409.7 49.7,404 51.5,409.7 53.4,407.3 55.2,403.5 57.1,408.7 59,407.3 
			60.8,406.4 62.7,406.4 64.5,410.6 66.4,406.4 68.2,406.4 70.1,403.5 71.9,406.4 73.8,411.1 75.6,404.9 77.5,408.7 79.3,409.2 
			81.2,407.3 83.1,404 84.9,405.9 86.8,410.1 88.6,404.9 90.5,409.7 92.3,408.7 94.2,413.5 96,402.6 97.9,405.4 99.7,400.7 
			101.6,409.7 103.4,406.8 105.3,412.5 107.2,407.8 109,409.7 110.9,404.9 112.7,404.5 116.4,409.2 118.3,403.5 120.1,406.8 
			122,403.5 123.8,401.6 125.7,404.5 127.6,401.6 129.4,406.4 131.3,406.8 133.1,406.4 135,407.8 136.8,399.7 138.7,405.9 
			140.5,398.3 142.4,406.8 144.2,399.7 146.1,406.4 147.9,400.2 149.8,405.9 151.6,404 153.5,405.4 155.4,404.9 159.1,402.1 
			160.9,406.4 162.8,404.5 164.6,404.5 166.5,400.7 170.2,405.4 172,404 173.9,404.9 175.8,407.3 177.6,395 179.5,401.6 
			183.2,398.8 185,408.7 186.9,403 188.7,399.3 190.6,404 192.4,405.9 194.3,400.2 196.1,399.3 198,396.9 199.9,397.8 201.7,400.7 
			203.6,400.2 205.4,398.8 207.3,398.8 209.1,399.7 211,403 212.8,401.1 214.7,394.5 216.5,403 218.4,402.6 220.2,405.4 
			222.1,401.6 223.9,398.8 225.8,399.7 227.7,399.7 229.5,402.1 231.4,399.7 233.2,403.5 235.1,402.1 236.9,396.9 238.8,406.4 
			240.6,391.7 242.5,397.4 244.3,400.2 246.2,398.8 248.1,404.5 249.9,400.2 251.8,405.4 253.6,398.8 255.5,399.7 257.3,398.3 
			259.2,403.5 261,400.7 262.9,401.1 264.7,400.7 266.6,402.6 268.4,398.3 270.3,400.2 272.1,404 274,398.3 275.9,397.8 
			277.7,398.8 279.6,398.3 281.4,403 283.3,398.3 285.1,402.6 287,405.9 288.8,398.3 290.7,395 292.5,399.3 294.4,402.6 
			296.2,402.1 298.1,403 300,397.4 301.8,396 303.7,404.5 305.5,398.3 307.4,397.4 309.2,402.6 311.1,399.3 312.9,399.3 
			314.8,400.7 316.6,398.8 318.5,398.8 320.4,405.9 322.2,401.6 324,393.1 325.9,397.8 327.8,400.7 329.6,396.9 331.5,404.5 
			333.3,398.8 335.2,402.1 337,396 338.9,401.6 340.7,400.2 342.6,406.4 344.4,397.8 346.3,401.1 348.1,398.3 350,407.3 
			351.9,399.3 353.7,407.3 355.6,403.5 357.4,409.2 359.3,399.3 361.1,404.9 363,401.1 364.8,400.7 366.7,400.7 368.5,397.8 
			370.4,404.5 372.2,406.8 374.1,399.3 376,403 377.8,401.6 379.7,394.1 381.5,403.5 383.4,403 385.2,406.4 387.1,396.9 
			390.8,402.6 392.6,396.4 394.5,399.3 396.4,396 398.2,400.2 400.1,381.8 401.9,395.5 403.8,378.9 405.6,390.3 407.5,377 
			409.3,394.5 411.2,374.2 413,367.6 414.9,367.1 416.7,381.3 418.6,344.4 420.5,371.4 422.3,361 424.2,370.4 426,341.1 
			427.9,340.1 429.7,345.8 431.6,352.9 433.4,325.5 435.3,352 437.1,317.9 439,341.6 440.8,339.7 442.7,336.8 444.5,311.3 
			446.4,349.6 448.3,308 452,280.1 453.8,296.6 455.7,267.8 457.5,242.7 459.4,235.2 461.2,251.7 463.1,156.7 464.9,234.2 
			466.8,162.3 468.6,194.5 470.5,71.5 472.4,144.8 474.2,23.8 476.1,98.5 477.9,29.5 479.8,395 481.6,396.9 483.5,396.4 
			485.3,392.2 487.2,403.5 489,396 490.9,402.1 492.8,398.3 494.6,405.9 496.5,403 498.3,402.6 500.2,402.6 502,406.4 503.9,395 
			505.7,396.9 507.6,401.6 509.4,403 511.3,399.3 513.1,405.9 515,401.6 516.8,402.6 518.7,401.6 522.4,404.5 524.3,398.8 
			526.1,400.7 528,405.9 529.8,407.8 531.7,397.8 533.5,404.5 535.4,407.3 537.2,403.5 539.1,400.2 541,397.4 542.8,400.7 
			546.5,403.5 548.4,404 550.2,401.1 552.1,408.2 553.9,405.9 555.8,397.8 557.6,403.5 559.5,400.2 561.3,404.9 563.2,404 
			565,404.5 566.9,407.8 568.8,400.2 570.6,405.9 572.5,404.5 574.3,400.7 576.2,404 579.9,400.2 581.7,402.6 583.6,404.5 
			585.4,399.3 587.3,404 589.2,392.6 591,393.6 592.9,398.3 594.7,399.3 596.6,402.6 598.4,399.7 600.3,394.1 602.1,402.6 
			604,398.3 605.8,398.8 607.7,404.5 609.5,395.5 611.4,399.7 613.2,399.7 615.1,398.3 617,393.6 618.8,401.1 620.7,402.6 
			622.5,399.7 624.4,394.5 626.2,398.3 628.1,393.1 629.9,395 631.8,402.1 633.6,405.9 635.5,400.7 637.3,394.1 639.2,401.1 
			641.1,399.3 642.9,398.8 644.8,396.4 646.6,402.1 648.5,395 650.3,401.6 652.2,397.4 654,401.6 655.9,403.5 657.7,398.8 
			659.6,399.3 661.5,398.8 665.2,402.6 667,398.3 668.9,403 670.7,400.7 672.6,400.2 674.4,396.9 676.3,403.5 680,400.7 
			681.8,396.4 683.7,404 685.5,398.3 687.4,408.2 689.3,402.6 691.1,399.7 693,396.4 694.8,401.1 696.7,392.6 698.5,405.9 
			700.4,398.8 702.2,403.5 704.1,398.8 705.9,407.8 707.8,399.3 709.7,404 711.5,403 713.4,403.5 715.2,398.3 718.9,400.2 
			720.8,400.7 722.6,404.5 724.5,400.7 726.3,403.5 728.2,403.5 730,394.1 731.9,404 733.8,400.7 735.6,407.3 737.5,399.3 
			739.3,404.9 741.2,400.2 743,407.8 744.9,403 746.7,401.1 748.6,405.9 750.4,401.1 752.3,400.2 754.1,401.6 756,402.1 
			757.8,408.7 759.7,396 761.5,404.9 763.4,399.7 765.3,403 767.1,402.1 769,400.7 770.8,406.4 772.7,409.2 774.5,410.1 
			776.4,402.1 778.2,403.5 780.1,401.6 782,401.6 783.8,405.4 785.7,405.4 787.5,406.8 789.4,404 791.2,404.5 793.1,406.8 
			794.9,405.4 796.8,406.4 798.6,406.8 800.5,404.5 802.3,402.6 804.2,403 806,406.4 807.9,405.4 809.8,407.3 811.6,401.1 
			813.5,404 815.3,402.1 817.2,408.2 819,406.8 820.9,409.7 822.7,399.3 824.6,407.8 826.4,405.4 828.3,406.4 830.2,406.4 
			832,411.6 833.8,404.9 835.7,405.9 837.6,405.4 839.4,405.9 841.3,404 843.1,406.4 845,406.4 846.8,407.3 848.7,406.8 
			850.5,409.2 852.4,404 854.2,407.3 856.1,406.4 858,408.2 859.8,410.6 861.7,411.1 863.5,406.4 865.4,412 867.2,408.2 
			869.1,408.2 870.9,405.9 872.8,404.9 874.6,406.4 876.5,406.8 878.3,406.4 880.2,407.8 882,405.4 883.9,409.7 885.8,411.6 
			887.6,404 891.3,408.7 893.2,405.4 895,402.6 896.9,409.7 898.7,404.9 900.6,406.8 902.5,411.6 904.3,409.7 906.2,407.3 
			908,410.6 909.9,410.6 911.7,404 913.6,409.2 915.4,409.7 917.3,412.5 919.1,407.3 921,407.3 922.8,411.1 924.7,411.1 
			926.5,408.2 930.2,407.3 932.1,410.6 934,408.2 935.8,412 937.7,404.9 939.5,410.1 941.4,409.7 943.2,404.5 945.1,402.1 
			946.9,411.6 948.8,405.4 950.6,413 952.5,406.8 954.3,410.6 956.2,410.1 958.1,412 959.9,405.9 961.8,409.2 963.6,413 
			965.5,413.5 967.3,407.3 969.2,410.6 971,413 972.9,411.1 974.7,406.8 976.6,409.7 978.5,408.7 980.3,415.3 982.2,411.1 
			984,409.7 985.9,409.2 987.7,408.2 989.6,410.1 993.3,413 995.1,410.6 997,409.7 998.8,411.1 1000.7,406.4 1002.5,412.5 
			1004.4,407.8 1006.3,412.5 1008.1,412.5 1010,409.2 1011.8,411.6 1013.7,411.6 1015.5,407.8 1017.4,409.7 1019.2,407.3 
			1021.1,412 1022.9,407.8 1024.8,408.7 1026.7,408.2 1028.5,413.9 1030.4,414.4 1032.2,414.4 1034.1,411.1 1035.9,408.2 
			1037.8,412.5 1039.6,409.7 1041.5,408.7 1043.3,408.2 1045.2,410.1 1047,414.4 1048.9,409.2 1050.8,408.2 1052.6,411.1 
			1054.5,412 1056.3,410.6 1058.2,410.6 1060,411.6 1061.9,408.2 1063.7,411.1 1065.6,411.1 1067.4,414.9 1069.3,413 1071.1,410.6 
			1073,411.6 1074.8,412 1076.7,409.7 1078.6,412 1080.4,413.5 1082.3,405.9 1084.1,410.6 1086,412 1087.8,412 1089.7,406.8 
			1091.5,413 1093.4,407.3 1095.2,413.5 1097.1,413.5 1098.9,410.6 1100.8,412 1102.7,408.7 1104.5,413 1106.4,411.1 1108.2,413 
			1110.1,411.6 1111.9,412.5 1113.8,413.9 1115.6,412.5 1117.5,406.8 1119.3,410.1 1121.2,412 1123.1,409.7 1124.9,406.4 
			1126.8,409.7 1128.6,413.9 1130.5,413 1132.3,412.5 1134.2,411.1 1136,409.2 1137.9,409.7 1139.7,414.9 1141.6,414.4 		"/>
	</g>
</g>
<line class="st3" x1="25.6" y1="438.9" x2="1141.6" y2="438.9"/>
<rect x="133.1" y="109.6" class="st2" width="205.4" height="135.5"/>
<text transform="matrix(1 0 0 1 133.1101 123.3553)"><tspan x="0" y="0" class="st10 st11 st12">The spike may due to the </tspan><tspan x="0" y="19" class="st10 st11 st12">NEOWISE, a mission </tspan><tspan x="0" y="38" class="st10 st11 st12">lauched in 2009, to hunt </tspan><tspan x="0" y="57" class="st10 st11 st12">for asteroids and comets, </tspan><tspan x="0" y="76" class="st10 st11 st12">and a later congress </tspan><tspan x="0" y="95" class="st10 st11 st12">mmandate</tspan></text>
<g>
	<g>
		<path class="st13" d="M235.8,226.8c0.7,1.9,1.5,3.8,2.2,5.6"/>
		<path class="st14" d="M242.7,243.1c27.6,58.9,70.6,82.4,123.3,83.5"/>
		<path class="st13" d="M371.8,326.6c2,0,4-0.1,6-0.2"/>
		<g>
			<polygon class="st15" points="372,331.6 376.9,326.4 371.7,321.5 376,321.3 381.3,326.3 376.3,331.5 			"/>
		</g>
	</g>
</g>
<rect x="632.6" y="310" class="st2" width="380.7" height="55.5"/>
<text transform="matrix(1 0 0 1 632.5798 323.7059)"><tspan x="0" y="0" class="st16 st11 st12">The future objects are still hard to detect, since </tspan><tspan x="0" y="26" class="st16 st11 st12">most of them are far away from the earth...</tspan></text>
</svg>
