<svg xmlns="http://www.w3.org/2000/svg" xmlns:xlink="http://www.w3.org/1999/xlink" viewBox="0 0 1142.5 453.61"><defs><style>.cls-1,.cls-13,.cls-16{fill:none;}.cls-2{fill:#83d6ff;opacity:0.3;}.cls-3{font-size:18px;font-family:MyriadPro-Regular, Myriad Pro;}.cls-10,.cls-11,.cls-12,.cls-14,.cls-3,.cls-8,.cls-9{fill:#fff;}.cls-4{letter-spacing:-0.01em;}.cls-5{letter-spacing:-0.01em;}.cls-6{letter-spacing:-0.01em;}.cls-7{letter-spacing:0.01em;}.cls-10,.cls-12,.cls-9{stroke:#fff;}.cls-9{stroke-miterlimit:10;}.cls-10,.cls-11,.cls-12,.cls-13,.cls-14,.cls-16{stroke-linejoin:round;}.cls-10,.cls-14{stroke-width:0.8px;}.cls-11,.cls-13,.cls-14{stroke:#000;}.cls-11,.cls-12,.cls-13{stroke-width:0.6px;}.cls-15{clip-path:url(#clip-path);}.cls-16{stroke:#fffcc7;stroke-linecap:square;stroke-width:1.5px;}</style><clipPath id="clip-path" transform="translate(-95.68 -65.11)"><rect class="cls-1" x="121.27" y="69.12" width="1116" height="434.88"/></clipPath></defs><g id="Layer_2" data-name="Layer 2"><rect class="cls-2" x="392.64" width="88.32" height="438.89"/><text x="-95.68" y="-65.11"/><text class="cls-3" transform="translate(207.95 121.49)"><tspan class="cls-4">T</tspan><tspan x="8.82" y="0">he</tspan><tspan class="cls-5" x="27.83" y="0">r</tspan><tspan x="33.53" y="0">e is a huge </tspan><tspan x="0" y="21.6">spike in the number </tspan><tspan x="0" y="43.2">of de</tspan><tspan class="cls-6" x="38.12" y="43.2">t</tspan><tspan x="43.97" y="43.2">e</tspan><tspan class="cls-7" x="52.99" y="43.2">c</tspan><tspan class="cls-6" x="61.29" y="43.2">t</tspan><tspan x="67.14" y="43.2">ed NEOs </tspan><tspan class="cls-4" x="134.17" y="43.2">b</tspan><tspan x="144.29" y="43.2">y </tspan><tspan x="0" y="64.8">NASA f</tspan><tspan class="cls-5" x="51.82" y="64.8">r</tspan><tspan x="57.53" y="64.8">om 2000 </tspan><tspan class="cls-6" x="126.99" y="64.8">t</tspan><tspan x="132.84" y="64.8">o </tspan><tspan x="0" y="86.4">2022.</tspan></text><path class="cls-8" d="M369.51,292A34,34,0,0,1,363,281c-.21-.6-1.18-.34-1,.27a35.16,35.16,0,0,0,6.77,11.38C369.23,293.16,369.93,292.45,369.51,292Z" transform="translate(-95.68 -65.11)"/><path class="cls-8" d="M385.81,312.05l-10-10a.5.5,0,0,0-.71.71l10,10A.5.5,0,0,0,385.81,312.05Z" transform="translate(-95.68 -65.11)"/><path class="cls-8" d="M405.63,325.85a21.17,21.17,0,0,1-11.1-7.48c-.4-.51-1.1.2-.71.71a22.18,22.18,0,0,0,11.54,7.74A.5.5,0,0,0,405.63,325.85Z" transform="translate(-95.68 -65.11)"/><path class="cls-8" d="M425.7,335.85l-10-3.9c-.6-.23-.86.74-.27,1l10,3.89C426,337.05,426.3,336.08,425.7,335.85Z" transform="translate(-95.68 -65.11)"/><path class="cls-8" d="M449.69,340.84a19.2,19.2,0,0,0-11.54-2.59c-.63.06-.64,1.06,0,1a18.33,18.33,0,0,1,11,2.45A.5.5,0,0,0,449.69,340.84Z" transform="translate(-95.68 -65.11)"/><path class="cls-8" d="M473.28,339.5h-1.47a.52.52,0,0,0,.3-.94,32,32,0,0,1-11.26-13.73c-.25-.59-1.11-.08-.86.5a32.84,32.84,0,0,0,11.62,14.09.52.52,0,0,0,.19.08H462a.5.5,0,0,0,0,1h11.29A.5.5,0,0,0,473.28,339.5Z" transform="translate(-95.68 -65.11)"/><path class="cls-8" d="M474.38,341.15A34,34,0,0,0,464.1,355c-.25.59.72.85,1,.26a33.09,33.09,0,0,1,10-13.36C475.59,341.46,474.88,340.76,474.38,341.15Z" transform="translate(-95.68 -65.11)"/></g><g id="Layer_1" data-name="Layer 1"><line x1="96.03" y1="438.89" x2="96.03" y2="442.39"/><line class="cls-9" x1="96.03" y1="438.89" x2="96.03" y2="442.39"/><polygon class="cls-8" points="84.56 452.65 86.17 452.65 86.17 447.09 84.42 447.44 84.42 446.54 86.16 446.19 87.14 446.19 87.14 452.65 88.75 452.65 88.75 453.48 84.56 453.48 84.56 452.65"/><path class="cls-8" d="M188.42,515.35a1.32,1.32,0,0,0,1.05-.45,2.18,2.18,0,0,0,0-2.49,1.43,1.43,0,0,0-2.1,0,2.18,2.18,0,0,0,0,2.49A1.32,1.32,0,0,0,188.42,515.35Zm-2,3.09v-.9a3.36,3.36,0,0,0,.75.27,3.2,3.2,0,0,0,.75.09,1.76,1.76,0,0,0,1.48-.65,3.65,3.65,0,0,0,.6-2,2.12,2.12,0,0,1-.72.65,2.05,2.05,0,0,1-1,.22,2.29,2.29,0,0,1-1.74-.66,2.85,2.85,0,0,1,0-3.61,2.37,2.37,0,0,1,1.77-.68,2.21,2.21,0,0,1,1.93,1A5,5,0,0,1,191,515a4.29,4.29,0,0,1-.82,2.75,2.68,2.68,0,0,1-2.2,1,4.76,4.76,0,0,1-.75-.07A4,4,0,0,1,186.46,518.44Z" transform="translate(-95.68 -65.11)"/><polygon class="cls-8" points="97.28 452.65 98.89 452.65 98.89 447.09 97.14 447.44 97.14 446.54 98.88 446.19 99.86 446.19 99.86 452.65 101.47 452.65 101.47 453.48 97.28 453.48 97.28 452.65"/><path class="cls-8" d="M201.14,515.35a1.32,1.32,0,0,0,1.05-.45,2.18,2.18,0,0,0,0-2.49,1.43,1.43,0,0,0-2.1,0,2.18,2.18,0,0,0,0,2.49A1.32,1.32,0,0,0,201.14,515.35Zm-2,3.09v-.9a3.36,3.36,0,0,0,.75.27,3.2,3.2,0,0,0,.75.09,1.76,1.76,0,0,0,1.48-.65,3.65,3.65,0,0,0,.6-2,2.12,2.12,0,0,1-.72.65,2.05,2.05,0,0,1-1,.22,2.29,2.29,0,0,1-1.74-.66,2.85,2.85,0,0,1,0-3.61,2.37,2.37,0,0,1,1.77-.68,2.21,2.21,0,0,1,1.93,1,5,5,0,0,1,.67,2.81,4.29,4.29,0,0,1-.82,2.75,2.68,2.68,0,0,1-2.2,1,4.76,4.76,0,0,1-.75-.07A4,4,0,0,1,199.18,518.44Z" transform="translate(-95.68 -65.11)"/><line x1="281.42" y1="438.89" x2="281.42" y2="442.39"/><line class="cls-9" x1="281.42" y1="438.89" x2="281.42" y2="442.39"/><polygon class="cls-8" points="269.94 452.65 271.55 452.65 271.55 447.09 269.8 447.44 269.8 446.54 271.54 446.19 272.53 446.19 272.53 452.65 274.14 452.65 274.14 453.48 269.94 453.48 269.94 452.65"/><path class="cls-8" d="M373.8,515.35a1.32,1.32,0,0,0,1.05-.45,2.18,2.18,0,0,0,0-2.49,1.43,1.43,0,0,0-2.1,0,2.18,2.18,0,0,0,0,2.49A1.32,1.32,0,0,0,373.8,515.35Zm-2,3.09v-.9a3.36,3.36,0,0,0,.75.27,3.2,3.2,0,0,0,.75.09,1.76,1.76,0,0,0,1.48-.65,3.65,3.65,0,0,0,.6-2,2.12,2.12,0,0,1-.72.65,2.05,2.05,0,0,1-1,.22,2.29,2.29,0,0,1-1.74-.66,2.85,2.85,0,0,1,0-3.61,2.37,2.37,0,0,1,1.77-.68,2.21,2.21,0,0,1,1.93,1,5,5,0,0,1,.67,2.81,4.29,4.29,0,0,1-.82,2.75,2.68,2.68,0,0,1-2.2,1,4.76,4.76,0,0,1-.75-.07A4,4,0,0,1,371.84,518.44Z" transform="translate(-95.68 -65.11)"/><path class="cls-8" d="M382.36,511.46v.9a3.76,3.76,0,0,0-.75-.27,3.33,3.33,0,0,0-.75-.09,1.78,1.78,0,0,0-1.5.66,3.51,3.51,0,0,0-.58,2,2,2,0,0,1,.72-.65,2.06,2.06,0,0,1,1-.23,2.29,2.29,0,0,1,1.73.67,2.53,2.53,0,0,1,.64,1.81,2.47,2.47,0,0,1-.67,1.8,2.35,2.35,0,0,1-1.76.67,2.2,2.2,0,0,1-1.93-1,4.88,4.88,0,0,1-.67-2.81,4.25,4.25,0,0,1,.82-2.75,2.68,2.68,0,0,1,2.2-1,5,5,0,0,1,.75.07A5.59,5.59,0,0,1,382.36,511.46Zm-2,3.09a1.33,1.33,0,0,0-1,.46,2.18,2.18,0,0,0,0,2.49,1.45,1.45,0,0,0,2.1,0,2.18,2.18,0,0,0,0-2.49A1.33,1.33,0,0,0,380.4,514.55Z" transform="translate(-95.68 -65.11)"/><path class="cls-8" d="M386.52,515.35a1.32,1.32,0,0,0,1.05-.45,2.18,2.18,0,0,0,0-2.49,1.43,1.43,0,0,0-2.1,0,2.18,2.18,0,0,0,0,2.49A1.32,1.32,0,0,0,386.52,515.35Zm-2,3.09v-.9a3.36,3.36,0,0,0,.75.27,3.2,3.2,0,0,0,.75.09,1.76,1.76,0,0,0,1.48-.65,3.65,3.65,0,0,0,.6-2,2.12,2.12,0,0,1-.72.65,2.05,2.05,0,0,1-1,.22,2.29,2.29,0,0,1-1.74-.66,2.85,2.85,0,0,1,0-3.61,2.37,2.37,0,0,1,1.77-.68,2.21,2.21,0,0,1,1.93,1,5,5,0,0,1,.67,2.81,4.29,4.29,0,0,1-.82,2.75,2.68,2.68,0,0,1-2.2,1,4.76,4.76,0,0,1-.75-.07A4,4,0,0,1,384.56,518.44Z" transform="translate(-95.68 -65.11)"/><line x1="466.8" y1="438.89" x2="466.8" y2="442.39"/><line class="cls-9" x1="466.8" y1="438.89" x2="466.8" y2="442.39"/><path class="cls-8" d="M551.68,517.76h3.44v.83h-4.63v-.83L552,516.2c.64-.65,1.05-1.07,1.22-1.26a4,4,0,0,0,.66-.9,1.65,1.65,0,0,0,.19-.73,1.21,1.21,0,0,0-.41-.94,1.54,1.54,0,0,0-1.06-.37,3.52,3.52,0,0,0-1,.16,6,6,0,0,0-1.1.49v-1a7.87,7.87,0,0,1,1.11-.36,4.19,4.19,0,0,1,1-.12,2.7,2.7,0,0,1,1.8.57,1.88,1.88,0,0,1,.68,1.51,2.19,2.19,0,0,1-.17.85,3.79,3.79,0,0,1-.61.95c-.08.1-.34.37-.78.82Z" transform="translate(-95.68 -65.11)"/><path class="cls-8" d="M559.3,511.17a2.14,2.14,0,0,1,1.87,1,6.4,6.4,0,0,1,0,5.62,2.14,2.14,0,0,1-1.88,1,2.11,2.11,0,0,1-1.87-1,6.49,6.49,0,0,1,0-5.62A2.14,2.14,0,0,1,559.3,511.17Zm0,.78a1.23,1.23,0,0,0-1.15.75,6.85,6.85,0,0,0,0,4.5,1.26,1.26,0,0,0,2.3,0,6.85,6.85,0,0,0,0-4.5A1.23,1.23,0,0,0,559.3,512Z" transform="translate(-95.68 -65.11)"/><polygon class="cls-8" points="468.04 452.65 469.65 452.65 469.65 447.09 467.9 447.44 467.9 446.54 469.64 446.19 470.63 446.19 470.63 452.65 472.24 452.65 472.24 453.48 468.04 453.48 468.04 452.65"/><path class="cls-8" d="M571.9,515.35a1.32,1.32,0,0,0,1.05-.45,2.18,2.18,0,0,0,0-2.49,1.43,1.43,0,0,0-2.1,0,2.18,2.18,0,0,0,0,2.49A1.32,1.32,0,0,0,571.9,515.35Zm-2,3.09v-.9a3.36,3.36,0,0,0,.75.27,3.2,3.2,0,0,0,.75.09,1.76,1.76,0,0,0,1.48-.65,3.65,3.65,0,0,0,.6-2,2.12,2.12,0,0,1-.72.65,2.05,2.05,0,0,1-1,.22,2.29,2.29,0,0,1-1.74-.66,2.85,2.85,0,0,1,0-3.61,2.37,2.37,0,0,1,1.77-.68,2.21,2.21,0,0,1,1.93,1,5,5,0,0,1,.67,2.81,4.29,4.29,0,0,1-.82,2.75,2.68,2.68,0,0,1-2.2,1,4.76,4.76,0,0,1-.75-.07A4,4,0,0,1,569.94,518.44Z" transform="translate(-95.68 -65.11)"/><line x1="652.18" y1="438.89" x2="652.18" y2="442.39"/><line class="cls-9" x1="652.18" y1="438.89" x2="652.18" y2="442.39"/><path class="cls-8" d="M737.06,517.76h3.44v.83h-4.63v-.83l1.53-1.56c.64-.65,1.05-1.07,1.22-1.26a4,4,0,0,0,.66-.9,1.65,1.65,0,0,0,.19-.73,1.21,1.21,0,0,0-.41-.94A1.54,1.54,0,0,0,738,512a3.52,3.52,0,0,0-1,.16,6,6,0,0,0-1.1.49v-1a7.87,7.87,0,0,1,1.11-.36,4.19,4.19,0,0,1,1-.12,2.7,2.7,0,0,1,1.8.57,1.88,1.88,0,0,1,.68,1.51,2.19,2.19,0,0,1-.17.85,3.79,3.79,0,0,1-.61.95c-.08.1-.34.37-.78.82Z" transform="translate(-95.68 -65.11)"/><path class="cls-8" d="M744.68,511.17a2.14,2.14,0,0,1,1.87,1,6.4,6.4,0,0,1,0,5.62,2.14,2.14,0,0,1-1.88,1,2.11,2.11,0,0,1-1.87-1,6.49,6.49,0,0,1,0-5.62A2.14,2.14,0,0,1,744.68,511.17Zm0,.78a1.23,1.23,0,0,0-1.15.75,6.85,6.85,0,0,0,0,4.5,1.26,1.26,0,0,0,2.3,0,6.85,6.85,0,0,0,0-4.5A1.23,1.23,0,0,0,744.68,512Z" transform="translate(-95.68 -65.11)"/><path class="cls-8" d="M753.12,511.46v.9a3.76,3.76,0,0,0-.75-.27,3.33,3.33,0,0,0-.75-.09,1.78,1.78,0,0,0-1.5.66,3.51,3.51,0,0,0-.58,2,2,2,0,0,1,.72-.65,2.06,2.06,0,0,1,1-.23,2.29,2.29,0,0,1,1.73.67,2.53,2.53,0,0,1,.64,1.81,2.47,2.47,0,0,1-.67,1.8,2.35,2.35,0,0,1-1.76.67,2.2,2.2,0,0,1-1.93-1,4.88,4.88,0,0,1-.67-2.81,4.25,4.25,0,0,1,.82-2.75,2.68,2.68,0,0,1,2.2-1,5,5,0,0,1,.75.07A5.59,5.59,0,0,1,753.12,511.46Zm-2,3.09a1.33,1.33,0,0,0-1,.46,2.18,2.18,0,0,0,0,2.49,1.45,1.45,0,0,0,2.1,0,2.18,2.18,0,0,0,0-2.49A1.33,1.33,0,0,0,751.16,514.55Z" transform="translate(-95.68 -65.11)"/><path class="cls-8" d="M757.28,515.35a1.32,1.32,0,0,0,1.05-.45,2.18,2.18,0,0,0,0-2.49,1.43,1.43,0,0,0-2.1,0,2.18,2.18,0,0,0,0,2.49A1.32,1.32,0,0,0,757.28,515.35Zm-2,3.09v-.9a3.36,3.36,0,0,0,.75.27,3.2,3.2,0,0,0,.75.09,1.76,1.76,0,0,0,1.48-.65,3.65,3.65,0,0,0,.6-2,2.12,2.12,0,0,1-.72.65,2.05,2.05,0,0,1-1,.22,2.29,2.29,0,0,1-1.74-.66,2.85,2.85,0,0,1,0-3.61,2.37,2.37,0,0,1,1.77-.68,2.21,2.21,0,0,1,1.93,1,5,5,0,0,1,.67,2.81,4.29,4.29,0,0,1-.82,2.75,2.68,2.68,0,0,1-2.2,1,4.76,4.76,0,0,1-.75-.07A4,4,0,0,1,755.32,518.44Z" transform="translate(-95.68 -65.11)"/><line x1="837.56" y1="438.89" x2="837.56" y2="442.39"/><line class="cls-10" x1="837.56" y1="438.89" x2="837.56" y2="442.39"/><path class="cls-8" d="M922.45,517.76h3.44v.83h-4.63v-.83l1.53-1.56c.64-.65,1.05-1.07,1.22-1.26a4,4,0,0,0,.66-.9,1.65,1.65,0,0,0,.19-.73,1.21,1.21,0,0,0-.41-.94,1.54,1.54,0,0,0-1.06-.37,3.52,3.52,0,0,0-1,.16,6,6,0,0,0-1.1.49v-1a7.87,7.87,0,0,1,1.11-.36,4.19,4.19,0,0,1,1-.12,2.7,2.7,0,0,1,1.8.57,1.88,1.88,0,0,1,.68,1.51,2.19,2.19,0,0,1-.17.85,3.79,3.79,0,0,1-.61.95c-.08.1-.34.37-.78.82Z" transform="translate(-95.68 -65.11)"/><polygon class="cls-8" points="832.44 452.65 834.05 452.65 834.05 447.09 832.3 447.44 832.3 446.54 834.04 446.19 835.03 446.19 835.03 452.65 836.64 452.65 836.64 453.48 832.44 453.48 832.44 452.65"/><polygon class="cls-8" points="838.8 452.65 840.41 452.65 840.41 447.09 838.66 447.44 838.66 446.54 840.4 446.19 841.39 446.19 841.39 452.65 843 452.65 843 453.48 838.8 453.48 838.8 452.65"/><path class="cls-8" d="M942.67,515.35a1.32,1.32,0,0,0,1.05-.45,2.18,2.18,0,0,0,0-2.49,1.43,1.43,0,0,0-2.1,0,2.18,2.18,0,0,0,0,2.49A1.32,1.32,0,0,0,942.67,515.35Zm-2,3.09v-.9a3.36,3.36,0,0,0,.75.27,3.2,3.2,0,0,0,.75.09,1.76,1.76,0,0,0,1.48-.65,3.65,3.65,0,0,0,.6-2,2.12,2.12,0,0,1-.72.65,2.05,2.05,0,0,1-1,.22,2.29,2.29,0,0,1-1.74-.66,2.85,2.85,0,0,1,0-3.61,2.37,2.37,0,0,1,1.77-.68,2.21,2.21,0,0,1,1.93,1,5,5,0,0,1,.67,2.81,4.29,4.29,0,0,1-.82,2.75,2.68,2.68,0,0,1-2.2,1,4.76,4.76,0,0,1-.75-.07A4,4,0,0,1,940.71,518.44Z" transform="translate(-95.68 -65.11)"/><line x1="1022.94" y1="438.89" x2="1022.94" y2="442.39"/><line class="cls-10" x1="1022.94" y1="438.89" x2="1022.94" y2="442.39"/><path class="cls-8" d="M1107.83,517.76h3.44v.83h-4.63v-.83l1.53-1.56c.64-.65,1-1.07,1.22-1.26a4,4,0,0,0,.66-.9,1.65,1.65,0,0,0,.19-.73,1.21,1.21,0,0,0-.41-.94,1.54,1.54,0,0,0-1.06-.37,3.52,3.52,0,0,0-1,.16,6,6,0,0,0-1.1.49v-1a7.87,7.87,0,0,1,1.11-.36,4.19,4.19,0,0,1,1-.12,2.7,2.7,0,0,1,1.8.57,1.88,1.88,0,0,1,.68,1.51,2.19,2.19,0,0,1-.17.85,3.79,3.79,0,0,1-.61.95c-.08.1-.34.37-.78.82Z" transform="translate(-95.68 -65.11)"/><polygon class="cls-8" points="1017.83 452.65 1019.43 452.65 1019.43 447.09 1017.68 447.44 1017.68 446.54 1019.42 446.19 1020.41 446.19 1020.41 452.65 1022.02 452.65 1022.02 453.48 1017.83 453.48 1017.83 452.65"/><path class="cls-8" d="M1123.89,511.46v.9a3.76,3.76,0,0,0-.75-.27,3.33,3.33,0,0,0-.75-.09,1.78,1.78,0,0,0-1.5.66,3.51,3.51,0,0,0-.58,2,2,2,0,0,1,.72-.65,2.06,2.06,0,0,1,1-.23,2.29,2.29,0,0,1,1.73.67,2.53,2.53,0,0,1,.64,1.81,2.47,2.47,0,0,1-.67,1.8,2.35,2.35,0,0,1-1.76.67,2.2,2.2,0,0,1-1.93-1,4.88,4.88,0,0,1-.67-2.81,4.25,4.25,0,0,1,.82-2.75,2.68,2.68,0,0,1,2.2-1,5,5,0,0,1,.75.07A5.59,5.59,0,0,1,1123.89,511.46Zm-2,3.09a1.33,1.33,0,0,0-1,.46,2.18,2.18,0,0,0,0,2.49,1.45,1.45,0,0,0,2.1,0,2.18,2.18,0,0,0,0-2.49A1.33,1.33,0,0,0,1121.93,514.55Z" transform="translate(-95.68 -65.11)"/><path class="cls-8" d="M1128.05,515.35a1.32,1.32,0,0,0,1-.45,2.18,2.18,0,0,0,0-2.49,1.43,1.43,0,0,0-2.1,0,2.18,2.18,0,0,0,0,2.49A1.32,1.32,0,0,0,1128.05,515.35Zm-2,3.09v-.9a3.36,3.36,0,0,0,.75.27,3.2,3.2,0,0,0,.75.09,1.76,1.76,0,0,0,1.48-.65,3.65,3.65,0,0,0,.6-2,2.12,2.12,0,0,1-.72.65,2.05,2.05,0,0,1-1,.22,2.29,2.29,0,0,1-1.74-.66,2.85,2.85,0,0,1,0-3.61,2.37,2.37,0,0,1,1.77-.68,2.21,2.21,0,0,1,1.93,1,5,5,0,0,1,.67,2.81,4.29,4.29,0,0,1-.82,2.75,2.68,2.68,0,0,1-2.2,1,4.76,4.76,0,0,1-.75-.07A4,4,0,0,1,1126.09,518.44Z" transform="translate(-95.68 -65.11)"/><line x1="58.96" y1="438.89" x2="58.96" y2="440.89"/><line class="cls-11" x1="58.96" y1="438.89" x2="58.96" y2="440.89"/><line x1="133.11" y1="438.89" x2="133.11" y2="440.89"/><line class="cls-11" x1="133.11" y1="438.89" x2="133.11" y2="440.89"/><line x1="170.19" y1="438.89" x2="170.19" y2="440.89"/><line class="cls-11" x1="170.19" y1="438.89" x2="170.19" y2="440.89"/><line x1="207.26" y1="438.89" x2="207.26" y2="440.89"/><line class="cls-11" x1="207.26" y1="438.89" x2="207.26" y2="440.89"/><line x1="244.34" y1="438.89" x2="244.34" y2="440.89"/><line class="cls-11" x1="244.34" y1="438.89" x2="244.34" y2="440.89"/><line x1="318.49" y1="438.89" x2="318.49" y2="440.89"/><line class="cls-12" x1="318.49" y1="438.89" x2="318.49" y2="440.89"/><line x1="355.57" y1="438.89" x2="355.57" y2="440.89"/><line class="cls-12" x1="355.57" y1="438.89" x2="355.57" y2="440.89"/><line x1="392.64" y1="438.89" x2="392.64" y2="440.89"/><line class="cls-12" x1="392.64" y1="438.89" x2="392.64" y2="440.89"/><line x1="429.72" y1="438.89" x2="429.72" y2="440.89"/><line class="cls-12" x1="429.72" y1="438.89" x2="429.72" y2="440.89"/><line x1="503.87" y1="438.89" x2="503.87" y2="440.89"/><line class="cls-12" x1="503.87" y1="438.89" x2="503.87" y2="440.89"/><line x1="540.95" y1="438.89" x2="540.95" y2="440.89"/><line class="cls-13" x1="540.95" y1="438.89" x2="540.95" y2="440.89"/><line x1="578.03" y1="438.89" x2="578.03" y2="440.89"/><line class="cls-13" x1="578.03" y1="438.89" x2="578.03" y2="440.89"/><line x1="615.1" y1="438.89" x2="615.1" y2="440.89"/><line class="cls-13" x1="615.1" y1="438.89" x2="615.1" y2="440.89"/><line x1="689.26" y1="438.89" x2="689.26" y2="440.89"/><line class="cls-13" x1="689.26" y1="438.89" x2="689.26" y2="440.89"/><line x1="726.33" y1="438.89" x2="726.33" y2="440.89"/><line class="cls-13" x1="726.33" y1="438.89" x2="726.33" y2="440.89"/><line x1="763.41" y1="438.89" x2="763.41" y2="440.89"/><line class="cls-13" x1="763.41" y1="438.89" x2="763.41" y2="440.89"/><line x1="800.49" y1="438.89" x2="800.49" y2="440.89"/><line class="cls-13" x1="800.49" y1="438.89" x2="800.49" y2="440.89"/><line x1="874.64" y1="438.89" x2="874.64" y2="440.89"/><line class="cls-13" x1="874.64" y1="438.89" x2="874.64" y2="440.89"/><line x1="911.71" y1="438.89" x2="911.71" y2="440.89"/><line class="cls-13" x1="911.71" y1="438.89" x2="911.71" y2="440.89"/><line x1="948.79" y1="438.89" x2="948.79" y2="440.89"/><line class="cls-13" x1="948.79" y1="438.89" x2="948.79" y2="440.89"/><line x1="985.87" y1="438.89" x2="985.87" y2="440.89"/><line class="cls-13" x1="985.87" y1="438.89" x2="985.87" y2="440.89"/><line x1="1060.02" y1="438.89" x2="1060.02" y2="440.89"/><line class="cls-13" x1="1060.02" y1="438.89" x2="1060.02" y2="440.89"/><line x1="1097.1" y1="438.89" x2="1097.1" y2="440.89"/><line class="cls-13" x1="1097.1" y1="438.89" x2="1097.1" y2="440.89"/><line x1="1134.17" y1="438.89" x2="1134.17" y2="440.89"/><line class="cls-13" x1="1134.17" y1="438.89" x2="1134.17" y2="440.89"/><line x1="25.59" y1="421.01" x2="22.09" y2="421.01"/><line class="cls-14" x1="25.59" y1="421.01" x2="22.09" y2="421.01"/><path class="cls-8" d="M111.09,482.5a2.14,2.14,0,0,1,1.87,1,6.4,6.4,0,0,1,0,5.62,2.14,2.14,0,0,1-1.88,1,2.11,2.11,0,0,1-1.87-1,6.49,6.49,0,0,1,0-5.62A2.14,2.14,0,0,1,111.09,482.5Zm0,.78a1.23,1.23,0,0,0-1.15.75,6.85,6.85,0,0,0,0,4.5,1.26,1.26,0,0,0,2.3,0,6.85,6.85,0,0,0,0-4.5A1.23,1.23,0,0,0,111.09,483.28Z" transform="translate(-95.68 -65.11)"/><line x1="25.59" y1="326.43" x2="22.09" y2="326.43"/><line class="cls-14" x1="25.59" y1="326.43" x2="22.09" y2="326.43"/><path class="cls-8" d="M97.11,394.51h3.44v.83H95.92v-.83L97.45,393c.64-.65,1-1.07,1.22-1.26a4,4,0,0,0,.66-.9,1.65,1.65,0,0,0,.19-.73,1.21,1.21,0,0,0-.41-.94,1.54,1.54,0,0,0-1.06-.37,3.52,3.52,0,0,0-1,.16,6,6,0,0,0-1.1.49v-1a7.87,7.87,0,0,1,1.11-.36,4.19,4.19,0,0,1,1-.12,2.7,2.7,0,0,1,1.8.57,1.88,1.88,0,0,1,.68,1.51,2.19,2.19,0,0,1-.17.85,3.79,3.79,0,0,1-.61.95c-.08.1-.34.37-.78.82Z" transform="translate(-95.68 -65.11)"/><path class="cls-8" d="M104.73,387.92a2.14,2.14,0,0,1,1.87,1,6.4,6.4,0,0,1,0,5.62,2.14,2.14,0,0,1-1.88,1,2.11,2.11,0,0,1-1.87-1,6.49,6.49,0,0,1,0-5.62A2.14,2.14,0,0,1,104.73,387.92Zm0,.78a1.23,1.23,0,0,0-1.15.75,6.85,6.85,0,0,0,0,4.5,1.26,1.26,0,0,0,2.3,0,6.85,6.85,0,0,0,0-4.5A1.23,1.23,0,0,0,104.73,388.7Z" transform="translate(-95.68 -65.11)"/><path class="cls-8" d="M111.09,387.92a2.14,2.14,0,0,1,1.87,1,6.4,6.4,0,0,1,0,5.62,2.14,2.14,0,0,1-1.88,1,2.11,2.11,0,0,1-1.87-1,6.49,6.49,0,0,1,0-5.62A2.14,2.14,0,0,1,111.09,387.92Zm0,.78a1.23,1.23,0,0,0-1.15.75,6.85,6.85,0,0,0,0,4.5,1.26,1.26,0,0,0,2.3,0,6.85,6.85,0,0,0,0-4.5A1.23,1.23,0,0,0,111.09,388.7Z" transform="translate(-95.68 -65.11)"/><line x1="25.59" y1="231.85" x2="22.09" y2="231.85"/><line class="cls-14" x1="25.59" y1="231.85" x2="22.09" y2="231.85"/><path class="cls-8" d="M98.71,293.47H100v4.75h1V299h-1v1.72H99V299H95.68v-1Zm.26.86-2.49,3.89H99Z" transform="translate(-95.68 -65.11)"/><path class="cls-8" d="M104.73,293.34a2.14,2.14,0,0,1,1.87,1,6.4,6.4,0,0,1,0,5.62,2.14,2.14,0,0,1-1.88,1,2.11,2.11,0,0,1-1.87-1,6.49,6.49,0,0,1,0-5.62A2.14,2.14,0,0,1,104.73,293.34Zm0,.78a1.23,1.23,0,0,0-1.15.75,6.85,6.85,0,0,0,0,4.5,1.26,1.26,0,0,0,2.3,0,6.85,6.85,0,0,0,0-4.5A1.23,1.23,0,0,0,104.73,294.12Z" transform="translate(-95.68 -65.11)"/><path class="cls-8" d="M111.09,293.34a2.14,2.14,0,0,1,1.87,1,6.4,6.4,0,0,1,0,5.62,2.14,2.14,0,0,1-1.88,1,2.11,2.11,0,0,1-1.87-1,6.49,6.49,0,0,1,0-5.62A2.14,2.14,0,0,1,111.09,293.34Zm0,.78a1.23,1.23,0,0,0-1.15.75,6.85,6.85,0,0,0,0,4.5,1.26,1.26,0,0,0,2.3,0,6.85,6.85,0,0,0,0-4.5A1.23,1.23,0,0,0,111.09,294.12Z" transform="translate(-95.68 -65.11)"/><line x1="25.59" y1="137.27" x2="22.09" y2="137.27"/><line class="cls-14" x1="25.59" y1="137.27" x2="22.09" y2="137.27"/><path class="cls-8" d="M100.45,199.05v.9a3.76,3.76,0,0,0-.75-.27,3.33,3.33,0,0,0-.75-.09,1.78,1.78,0,0,0-1.5.66,3.51,3.51,0,0,0-.58,2,2,2,0,0,1,.72-.65,2.06,2.06,0,0,1,1-.23,2.29,2.29,0,0,1,1.73.67,2.53,2.53,0,0,1,.64,1.81,2.47,2.47,0,0,1-.67,1.8,2.35,2.35,0,0,1-1.76.67,2.2,2.2,0,0,1-1.93-1,4.88,4.88,0,0,1-.67-2.81,4.25,4.25,0,0,1,.82-2.75,2.68,2.68,0,0,1,2.2-1,5,5,0,0,1,.75.07A5.59,5.59,0,0,1,100.45,199.05Zm-2,3.09a1.33,1.33,0,0,0-1,.46,2.18,2.18,0,0,0,0,2.49,1.45,1.45,0,0,0,2.1,0,2.18,2.18,0,0,0,0-2.49A1.33,1.33,0,0,0,98.49,202.14Z" transform="translate(-95.68 -65.11)"/><path class="cls-8" d="M104.73,198.76a2.14,2.14,0,0,1,1.87,1,6.4,6.4,0,0,1,0,5.62,2.14,2.14,0,0,1-1.88,1,2.11,2.11,0,0,1-1.87-1,6.49,6.49,0,0,1,0-5.62A2.14,2.14,0,0,1,104.73,198.76Zm0,.78a1.23,1.23,0,0,0-1.15.75,6.85,6.85,0,0,0,0,4.5,1.26,1.26,0,0,0,2.3,0,6.85,6.85,0,0,0,0-4.5A1.23,1.23,0,0,0,104.73,199.54Z" transform="translate(-95.68 -65.11)"/><path class="cls-8" d="M111.09,198.76a2.14,2.14,0,0,1,1.87,1,6.4,6.4,0,0,1,0,5.62,2.14,2.14,0,0,1-1.88,1,2.11,2.11,0,0,1-1.87-1,6.49,6.49,0,0,1,0-5.62A2.14,2.14,0,0,1,111.09,198.76Zm0,.78a1.23,1.23,0,0,0-1.15.75,6.85,6.85,0,0,0,0,4.5,1.26,1.26,0,0,0,2.3,0,6.85,6.85,0,0,0,0-4.5A1.23,1.23,0,0,0,111.09,199.54Z" transform="translate(-95.68 -65.11)"/><line x1="25.59" y1="42.69" x2="22.09" y2="42.69"/><line class="cls-14" x1="25.59" y1="42.69" x2="22.09" y2="42.69"/><path class="cls-8" d="M97,106.16a1.12,1.12,0,0,0,.35.89,1.75,1.75,0,0,0,2,0,1.12,1.12,0,0,0,.36-.89,1.1,1.1,0,0,0-.36-.88,1.71,1.71,0,0,0-2,0A1.1,1.1,0,0,0,97,106.16Zm.36,1.56a1.78,1.78,0,0,1-1-.59,1.59,1.59,0,0,1-.35-1.06,1.67,1.67,0,0,1,.62-1.38,2.6,2.6,0,0,1,1.71-.51,2.64,2.64,0,0,1,1.71.51,1.7,1.7,0,0,1,.62,1.38,1.6,1.6,0,0,1-.36,1.06,1.75,1.75,0,0,1-1,.59,2,2,0,0,1,1.11.65,1.83,1.83,0,0,1,.4,1.18,2,2,0,0,1-.65,1.62,2.76,2.76,0,0,1-1.86.56,2.71,2.71,0,0,1-1.85-.56,2,2,0,0,1-.64-1.62,1.78,1.78,0,0,1,.4-1.18A1.94,1.94,0,0,1,97.38,107.72Zm1,.42a1.57,1.57,0,0,0-1.11.38,1.33,1.33,0,0,0-.4,1,1.35,1.35,0,0,0,.4,1,1.57,1.57,0,0,0,1.11.37,1.52,1.52,0,0,0,1.1-.38,1.33,1.33,0,0,0,.41-1,1.36,1.36,0,0,0-.4-1A1.57,1.57,0,0,0,98.37,108.14Z" transform="translate(-95.68 -65.11)"/><path class="cls-8" d="M104.73,104.18a2.14,2.14,0,0,1,1.87,1,6.4,6.4,0,0,1,0,5.62,2.14,2.14,0,0,1-1.88,1,2.11,2.11,0,0,1-1.87-1,6.49,6.49,0,0,1,0-5.62A2.14,2.14,0,0,1,104.73,104.18Zm0,.78a1.23,1.23,0,0,0-1.15.75,6.85,6.85,0,0,0,0,4.5,1.26,1.26,0,0,0,2.3,0,6.85,6.85,0,0,0,0-4.5A1.23,1.23,0,0,0,104.73,105Z" transform="translate(-95.68 -65.11)"/><path class="cls-8" d="M111.09,104.18a2.14,2.14,0,0,1,1.87,1,6.4,6.4,0,0,1,0,5.62,2.14,2.14,0,0,1-1.88,1,2.11,2.11,0,0,1-1.87-1,6.49,6.49,0,0,1,0-5.62A2.14,2.14,0,0,1,111.09,104.18Zm0,.78a1.23,1.23,0,0,0-1.15.75,6.85,6.85,0,0,0,0,4.5,1.26,1.26,0,0,0,2.3,0,6.85,6.85,0,0,0,0-4.5A1.23,1.23,0,0,0,111.09,105Z" transform="translate(-95.68 -65.11)"/><g class="cls-15"><polyline class="cls-16" points="25.59 419.12 27.44 402.57 29.3 408.24 31.15 404.46 33 406.83 34.86 405.88 36.71 408.24 38.56 407.3 40.42 405.41 42.27 406.35 44.13 408.24 45.98 400.68 47.83 409.66 49.69 403.99 51.54 409.66 53.4 407.3 55.25 403.51 57.1 408.72 58.96 407.3 60.81 406.35 62.66 406.35 64.52 410.61 66.37 406.35 68.23 406.35 70.08 403.51 71.93 406.35 73.79 411.08 75.64 404.93 77.5 408.72 79.35 409.19 81.2 407.3 83.06 403.99 84.91 405.88 86.76 410.14 88.62 404.93 90.47 409.66 92.33 408.72 94.18 413.45 96.03 402.57 97.89 405.41 99.74 400.68 101.59 409.66 103.45 406.83 105.3 412.5 107.16 407.77 109.01 409.66 110.86 404.93 112.72 404.46 116.42 409.19 118.28 403.51 120.13 406.83 121.99 403.51 123.84 401.62 125.69 404.46 127.55 401.62 129.4 406.35 131.26 406.83 133.11 406.35 134.96 407.77 136.82 399.73 138.67 405.88 140.53 398.31 142.38 406.83 144.23 399.73 146.09 406.35 147.94 400.2 149.79 405.88 151.65 403.99 153.5 405.41 155.36 404.93 159.06 402.1 160.92 406.35 162.77 404.46 164.63 404.46 166.48 400.68 170.19 405.41 172.04 403.99 173.89 404.93 175.75 407.3 177.6 395 179.46 401.62 183.16 398.79 185.02 408.72 186.87 403.04 188.72 399.26 190.58 403.99 192.43 405.88 194.29 400.2 196.14 399.26 197.99 396.89 199.85 397.84 201.7 400.68 203.56 400.2 205.41 398.79 207.26 398.79 209.12 399.73 210.97 403.04 212.82 401.15 214.68 394.53 216.53 403.04 218.38 402.57 220.24 405.41 222.09 401.62 223.95 398.79 225.8 399.73 227.66 399.73 229.51 402.1 231.36 399.73 233.22 403.51 235.07 402.1 236.92 396.89 238.78 406.35 240.63 391.69 242.49 397.37 244.34 400.2 246.19 398.79 248.05 404.46 249.9 400.2 251.75 405.41 253.61 398.79 255.46 399.73 257.32 398.31 259.17 403.51 261.02 400.68 262.88 401.15 264.73 400.68 266.58 402.57 268.44 398.31 270.29 400.2 272.15 403.99 274 398.31 275.85 397.84 277.71 398.79 279.56 398.31 281.42 403.04 283.27 398.31 285.12 402.57 286.98 405.88 288.83 398.31 290.68 395 292.54 399.26 294.39 402.57 296.25 402.1 298.1 403.04 299.95 397.37 301.81 395.95 303.66 404.46 305.51 398.31 307.37 397.37 309.22 402.57 311.08 399.26 312.93 399.26 314.78 400.68 316.64 398.79 318.49 398.79 320.35 405.88 322.2 401.62 324.05 393.11 325.91 397.84 327.76 400.68 329.62 396.89 331.47 404.46 333.32 398.79 335.18 402.1 337.03 395.95 338.88 401.62 340.74 400.2 342.59 406.35 344.44 397.84 346.3 401.15 348.15 398.31 350.01 407.3 351.86 399.26 353.71 407.3 355.57 403.51 357.42 409.19 359.28 399.26 361.13 404.93 362.98 401.15 364.84 400.68 366.69 400.68 368.55 397.84 370.4 404.46 372.25 406.83 374.11 399.26 375.96 403.04 377.81 401.62 379.67 394.06 381.52 403.51 383.38 403.04 385.23 406.35 387.08 396.89 390.79 402.57 392.64 396.42 394.5 399.26 396.35 395.95 398.21 400.2 400.06 381.76 401.91 395.48 403.77 378.92 405.62 390.27 407.48 377.03 409.33 394.53 411.18 374.19 413.04 367.57 414.89 367.1 416.74 381.29 418.6 344.4 420.45 371.36 422.31 360.95 424.16 370.41 426.01 341.09 427.87 340.15 429.72 345.82 431.57 352.92 433.43 325.49 435.28 351.97 437.14 317.92 438.99 341.56 440.84 339.67 442.7 336.84 444.55 311.3 446.4 349.61 448.26 307.99 451.97 280.09 453.82 296.64 455.67 267.79 457.53 242.73 459.38 235.16 461.24 251.71 463.09 156.66 464.94 234.22 466.8 162.34 468.65 194.49 470.5 71.54 472.36 144.84 474.21 23.78 476.07 98.49 477.92 29.45 479.77 395 481.63 396.89 483.48 396.42 485.34 392.17 487.19 403.51 489.04 395.95 490.9 402.1 492.75 398.31 494.61 405.88 496.46 403.04 498.31 402.57 500.17 402.57 502.02 406.35 503.87 395 505.73 396.89 507.58 401.62 509.44 403.04 511.29 399.26 513.14 405.88 515 401.62 516.85 402.57 518.7 401.62 522.41 404.46 524.27 398.79 526.12 400.68 527.97 405.88 529.83 407.77 531.68 397.84 533.53 404.46 535.39 407.3 537.24 403.51 539.1 400.2 540.95 397.37 542.8 400.68 546.51 403.51 548.37 403.99 550.22 401.15 552.07 408.24 553.93 405.88 555.78 397.84 557.63 403.51 559.49 400.2 561.34 404.93 563.2 403.99 565.05 404.46 566.9 407.77 568.76 400.2 570.61 405.88 572.47 404.46 574.32 400.68 576.17 403.99 579.88 400.2 581.73 402.57 583.59 404.46 585.44 399.26 587.3 403.99 589.15 392.64 591 393.58 592.86 398.31 594.71 399.26 596.57 402.57 598.42 399.73 600.27 394.06 602.13 402.57 603.98 398.31 605.83 398.79 607.69 404.46 609.54 395.48 611.39 399.73 613.25 399.73 615.1 398.31 616.96 393.58 618.81 401.15 620.66 402.57 622.52 399.73 624.37 394.53 626.23 398.31 628.08 393.11 629.93 395 631.79 402.1 633.64 405.88 635.5 400.68 637.35 394.06 639.2 401.15 641.06 399.26 642.91 398.79 644.76 396.42 646.62 402.1 648.47 395 650.33 401.62 652.18 397.37 654.03 401.62 655.89 403.51 657.74 398.79 659.6 399.26 661.45 398.79 665.16 402.57 667.01 398.31 668.86 403.04 670.72 400.68 672.57 400.2 674.42 396.89 676.28 403.51 679.99 400.68 681.84 396.42 683.69 403.99 685.55 398.31 687.4 408.24 689.26 402.57 691.11 399.73 692.96 396.42 694.82 401.15 696.67 392.64 698.52 405.88 700.38 398.79 702.23 403.51 704.09 398.79 705.94 407.77 707.79 399.26 709.65 403.99 711.5 403.04 713.36 403.51 715.21 398.31 718.92 400.2 720.77 400.68 722.63 404.46 724.48 400.68 726.33 403.51 728.19 403.51 730.04 394.06 731.89 403.99 733.75 400.68 735.6 407.3 737.46 399.26 739.31 404.93 741.16 400.2 743.02 407.77 744.87 403.04 746.72 401.15 748.58 405.88 750.43 401.15 752.29 400.2 754.14 401.62 755.99 402.1 757.85 408.72 759.7 395.95 761.55 404.93 763.41 399.73 765.26 403.04 767.12 402.1 768.97 400.68 770.82 406.35 772.68 409.19 774.53 410.14 776.38 402.1 778.24 403.51 780.09 401.62 781.95 401.62 783.8 405.41 785.65 405.41 787.51 406.83 789.36 403.99 791.22 404.46 793.07 406.83 794.92 405.41 796.78 406.35 798.63 406.83 800.49 404.46 802.34 402.57 804.19 403.04 806.05 406.35 807.9 405.41 809.75 407.3 811.61 401.15 813.46 403.99 815.32 402.1 817.17 408.24 819.02 406.83 820.88 409.66 822.73 399.26 824.59 407.77 826.44 405.41 828.29 406.35 830.15 406.35 832 411.56 833.85 404.93 835.71 405.88 837.56 405.41 839.41 405.88 841.27 403.99 843.12 406.35 844.98 406.35 846.83 407.3 848.68 406.83 850.54 409.19 852.39 403.99 854.25 407.3 856.1 406.35 857.95 408.24 859.81 410.61 861.66 411.08 863.51 406.35 865.37 412.03 867.22 408.24 869.08 408.24 870.93 405.88 872.78 404.93 874.64 406.35 876.49 406.83 878.35 406.35 880.2 407.77 882.05 405.41 883.91 409.66 885.76 411.56 887.62 403.99 891.32 408.72 893.18 405.41 895.03 402.57 896.88 409.66 898.74 404.93 900.59 406.83 902.45 411.56 904.3 409.66 906.15 407.3 908.01 410.61 909.86 410.61 911.71 403.99 913.57 409.19 915.42 409.66 917.28 412.5 919.13 407.3 920.98 407.3 922.84 411.08 924.69 411.08 926.54 408.24 930.25 407.3 932.11 410.61 933.96 408.24 935.81 412.03 937.67 404.93 939.52 410.14 941.38 409.66 943.23 404.46 945.08 402.1 946.94 411.56 948.79 405.41 950.64 412.97 952.5 406.83 954.35 410.61 956.21 410.14 958.06 412.03 959.91 405.88 961.77 409.19 963.62 412.97 965.48 413.45 967.33 407.3 969.18 410.61 971.04 412.97 972.89 411.08 974.74 406.83 976.6 409.66 978.45 408.72 980.31 415.34 982.16 411.08 984.01 409.66 985.87 409.19 987.72 408.24 989.58 410.14 993.28 412.97 995.14 410.61 996.99 409.66 998.84 411.08 1000.7 406.35 1002.55 412.5 1004.4 407.77 1006.26 412.5 1008.11 412.5 1009.97 409.19 1011.82 411.56 1013.67 411.56 1015.53 407.77 1017.38 409.66 1019.24 407.3 1021.09 412.03 1022.94 407.77 1024.8 408.72 1026.65 408.24 1028.51 413.92 1030.36 414.39 1032.21 414.39 1034.07 411.08 1035.92 408.24 1037.77 412.5 1039.63 409.66 1041.48 408.72 1043.34 408.24 1045.19 410.14 1047.04 414.39 1048.9 409.19 1050.75 408.24 1052.61 411.08 1054.46 412.03 1056.31 410.61 1058.17 410.61 1060.02 411.56 1061.87 408.24 1063.73 411.08 1065.58 411.08 1067.43 414.87 1069.29 412.97 1071.14 410.61 1073 411.56 1074.85 412.03 1076.7 409.66 1078.56 412.03 1080.41 413.45 1082.27 405.88 1084.12 410.61 1085.97 412.03 1087.83 412.03 1089.68 406.83 1091.54 412.97 1093.39 407.3 1095.24 413.45 1097.1 413.45 1098.95 410.61 1100.8 412.03 1102.66 408.72 1104.51 412.97 1106.37 411.08 1108.22 412.97 1110.07 411.56 1111.93 412.5 1113.78 413.92 1115.63 412.5 1117.49 406.83 1119.34 410.14 1121.2 412.03 1123.05 409.66 1124.9 406.35 1126.76 409.66 1128.61 413.92 1130.46 412.97 1132.32 412.5 1134.17 411.08 1136.03 409.19 1137.88 409.66 1139.73 414.87 1141.59 414.39"/></g><line class="cls-9" x1="25.59" y1="438.89" x2="25.59" y2="4.01"/><line class="cls-9" x1="25.59" y1="438.89" x2="1141.59" y2="438.89"/></g></svg>